<svg width="223" height="138" viewBox="0 0 223 138" xmlns="http://www.w3.org/2000/svg"><title>container</title><g fill="none" fill-rule="evenodd"><path d="M90 4.003C90 1.24 92.143-.355 94.792.441L218.208 37.56c2.646.796 4.792 3.684 4.792 6.44v50c0 2.762-2.143 5.645-4.792 6.441L94.792 137.56c-2.646.796-4.792-.8-4.792-3.562V4.003z" fill="#D8D8D8"/><g transform="translate(100 13)" fill="#FFF"><rect width="6" height="110" rx="3"/><rect x="18" y="6" width="6" height="100" rx="3"/><rect x="36" y="11" width="6" height="90" rx="3"/><rect x="54" y="16" width="6" height="80" rx="3"/><rect x="72" y="21" width="6" height="70" rx="3"/><rect x="90" y="26" width="6" height="60" rx="3"/><rect x="108" y="31" width="6" height="50" rx="3"/></g><g transform="translate(0 -1)"><path d="M0 30c0-2.762 2.144-5.63 4.798-6.411L80.202 1.41c2.65-.78 4.797.83 4.797 3.592l-.037 129.994c0 2.763-2.144 4.373-4.797 3.592L4.795 116.41C2.147 115.63 0 112.752 0 110V29.999z" fill="#D8D8D8"/><rect fill="#FFF" x="40" y="20" width="4" height="100" rx="2"/><rect fill="#FFF" x="48" y="65" width="4" height="10" rx="2"/><rect fill="#FFF" x="32" y="66" width="4" height="8" rx="2"/></g></g></svg>