<?xml version="1.0" encoding="UTF-8"?>
<svg width="223px" height="138px" viewBox="0 0 223 138" version="1.1" xmlns="http://www.w3.org/2000/svg" xmlns:xlink="http://www.w3.org/1999/xlink">
    <!-- Generator: Sketch 41 (35326) - http://www.bohemiancoding.com/sketch -->
    <title>container</title>
    <desc>Created with Sketch.</desc>
    <defs></defs>
    <g id="Page-1" stroke="none" stroke-width="1" fill="none" fill-rule="evenodd">
        <g id="container" transform="translate(-115.000000, -131.000000)">
            <g transform="translate(115.000000, 130.000000)">
                <g id="right" transform="translate(90.000000, 0.000000)">
                    <path d="M0,5.00329329 C0,2.24005071 2.14298193,0.644505844 4.79241532,1.44132792 L128.207585,38.5586721 C130.854363,39.3546955 133,42.2425656 133,44.9995286 L133,95.0004714 C133,97.7616348 130.857018,100.644506 128.207585,101.441328 L4.79241532,138.558672 C2.14563743,139.354696 0,137.75847 0,134.996707 L0,5.00329329 Z" id="Rectangle" fill="#D8D8D8"></path>
                    <g id="Group" transform="translate(10.000000, 14.000000)" fill="#FFFFFF">
                        <rect id="Rectangle-2" x="0" y="0" width="6" height="110" rx="3"></rect>
                        <rect id="Rectangle-2" x="18" y="6" width="6" height="100" rx="3"></rect>
                        <rect id="Rectangle-2" x="36" y="11" width="6" height="90" rx="3"></rect>
                        <rect id="Rectangle-2" x="54" y="16" width="6" height="80" rx="3"></rect>
                        <rect id="Rectangle-2" x="72" y="21" width="6" height="70" rx="3"></rect>
                        <rect id="Rectangle-2" x="90" y="26" width="6" height="60" rx="3"></rect>
                        <rect id="Rectangle-2" x="108" y="31" width="6" height="50" rx="3"></rect>
                    </g>
                </g>
                <g id="left">
                    <path d="M0,29.9992682 C0,27.2382486 2.14364721,24.3695155 4.79812671,23.5887863 L80.2018733,1.41121374 C82.8518055,0.631821912 84.9993749,2.24153039 84.9986046,5.00329329 L84.9623508,134.996707 C84.9615802,137.759949 82.8182929,139.369516 80.1650327,138.588786 L4.7959227,116.411214 C2.14720773,115.631822 0,112.752814 0,110.000732 L0,29.9992682 Z" id="Rectangle" fill="#D8D8D8"></path>
                    <rect id="Rectangle-2" fill="#FFFFFF" x="40" y="20" width="4" height="100" rx="2"></rect>
                    <rect id="Rectangle-2" fill="#FFFFFF" x="48" y="65" width="4" height="10" rx="2"></rect>
                    <rect id="Rectangle-2" fill="#FFFFFF" x="32" y="66" width="4" height="8" rx="2"></rect>
                </g>
            </g>
        </g>
    </g>
</svg>