<svg width="80" height="72" viewBox="0 0 80 72" xmlns="http://www.w3.org/2000/svg" xmlns:xlink="http://www.w3.org/1999/xlink"><title>container-engine-logo</title><defs><path d="M.037 36.582c.1.999.407 1.982.919 2.88l16.279 28.595a7.122 7.122 0 0 0 5.696 3.599h33.518a7.122 7.122 0 0 0 5.696-3.6l16.28-28.594a7.317 7.317 0 0 0 0-7.231L62.144 3.637A7.114 7.114 0 0 0 55.97.02H23.411a7.114 7.114 0 0 0-6.176 3.616L.955 32.23a7.297 7.297 0 0 0-.918 2.88v1.47" id="a"/></defs><g fill="none" fill-rule="evenodd"><mask id="b" fill="#fff"><use xlink:href="#a"/></mask><use fill="#0E62C2" xlink:href="#a"/><path d="M39.69 18.867l-15.194 8.371-.637 18.448 25.626 25.986h6.484a7.114 7.114 0 0 0 6.176-3.615L74.901 45.65 55.584 26.06 39.69 18.866" fill="#0751B0" mask="url(#b)"/><path d="M55.21 25.78l-14.683-8.596a1.653 1.653 0 0 0-1.674 0L24.17 25.78a1.701 1.701 0 0 0-.837 1.47v17.193a1.7 1.7 0 0 0 .837 1.47l14.683 8.597a1.653 1.653 0 0 0 1.674 0l14.683-8.597a1.7 1.7 0 0 0 .837-1.47V27.25c0-.606-.32-1.167-.837-1.47zm-2.015 17.016l-5.122-3v-7.9l-7.565 4.43v8.858l6.747-3.95 5.123 2.998-12.688 7.429-12.688-7.429 5.123-2.999 6.747 3.95v-8.858l-7.565-4.428v7.9l-5.122 2.999V27.94l12.687-7.429v5.999l-6.747 3.95 7.565 4.429 7.565-4.43-6.747-3.95v-5.998l12.687 7.429v14.856z" fill="#FFF"/></g></svg>