<?xml version="1.0" encoding="utf-8"?>
<!-- Generator: Adobe Illustrator 16.0.0, SVG Export Plug-In . SVG Version: 6.00 Build 0)  -->
<!DOCTYPE svg PUBLIC "-//W3C//DTD SVG 1.1//EN" "http://www.w3.org/Graphics/SVG/1.1/DTD/svg11.dtd">
<svg version="1.1" id="Layer_1" xmlns="http://www.w3.org/2000/svg" xmlns:xlink="http://www.w3.org/1999/xlink" x="0px" y="0px"
	 width="175px" height="70px" viewBox="0 0 175 70" enable-background="new 0 0 175 70" xml:space="preserve">
<g>
	<g>
		<path fill="#211F1F" d="M86.956,25.385c-0.397,0.648-0.902,0.864-1.408,0.864c-0.47,0-0.975-0.216-1.301-0.864l-4.84-9.147V33.74
			c0,0.829-0.939,1.26-1.914,1.26c-0.939,0-1.914-0.432-1.914-1.26V10.583c0-1.404,0.939-1.909,1.914-1.909
			c1.372,0,2.131,0.468,3.034,2.161l5.056,9.543l5.128-9.543c0.903-1.692,1.625-2.161,2.999-2.161c1.011,0,1.913,0.504,1.913,1.909
			V33.74c0,0.829-0.938,1.26-1.913,1.26c-0.939,0-1.916-0.432-1.916-1.26V16.454L86.956,25.385z"/>
		<path fill="#211F1F" d="M98.513,33.416c0-0.109,0-0.217,0.036-0.325l7.187-23.336c0.288-0.865,1.336-1.297,2.419-1.297
			c1.085,0,2.168,0.432,2.457,1.297l7.149,23.336c0.036,0.108,0.072,0.216,0.072,0.325c0,0.9-1.335,1.584-2.42,1.584
			c-0.612,0-1.119-0.216-1.299-0.792l-1.481-5.114h-8.92l-1.481,5.114c-0.181,0.576-0.687,0.792-1.336,0.792
			C99.849,35,98.513,34.352,98.513,33.416z M111.767,26.033l-3.612-12.353l-3.61,12.353H111.767z"/>
		<path fill="#211F1F" d="M133.146,33.596l-8.633-16.386v16.53c0,0.829-0.939,1.26-1.914,1.26c-0.939,0-1.914-0.432-1.914-1.26
			V9.935c0-0.9,0.939-1.26,1.914-1.26c1.372,0,2.022,0.504,2.89,2.161l8.018,15.594V9.899c0-0.865,0.974-1.225,1.913-1.225
			c0.976,0,1.914,0.36,1.914,1.225v23.84c0,0.829-0.938,1.26-1.914,1.26C134.48,35,133.65,34.532,133.146,33.596z"/>
		<path fill="#211F1F" d="M156.475,8.675c0.866,0,1.264,0.864,1.264,1.693c0,0.936-0.434,1.8-1.264,1.8h-5.562V33.74
			c0,0.829-0.976,1.26-1.914,1.26c-0.977,0-1.915-0.432-1.915-1.26V12.168h-5.597c-0.795,0-1.265-0.828-1.265-1.765
			c0-0.829,0.397-1.729,1.265-1.729H156.475z"/>
		<path fill="#211F1F" d="M162.324,35c-0.831,0-1.698-0.432-1.698-1.26V9.899c0-0.865,0.977-1.225,1.915-1.225
			c0.975,0,1.914,0.36,1.914,1.225v21.715h9.389c0.759,0,1.156,0.829,1.156,1.692c0,0.829-0.397,1.693-1.156,1.693H162.324z"/>
	</g>
	<ellipse fill="#211F1F" cx="35.099" cy="35" rx="35.099" ry="35"/>
	<g>
		<path fill="#E9233A" d="M65.877,35h-5.441c0-6.749-2.636-13.094-7.422-17.866c-4.785-4.772-11.148-7.4-17.916-7.4V4.307
			c4.154,0,8.185,0.812,11.981,2.413c3.665,1.546,6.957,3.759,9.783,6.577c2.826,2.818,5.045,6.1,6.595,9.755
			C65.064,26.838,65.877,30.857,65.877,35z"/>
	</g>
	<g>
		<path fill="#EE5228" d="M57.035,35h-5.442c0-4.394-1.716-8.524-4.831-11.631c-3.116-3.107-7.258-4.818-11.664-4.818v-5.426
			c2.96,0,5.833,0.579,8.54,1.72c2.612,1.102,4.958,2.679,6.972,4.687c2.014,2.008,3.595,4.348,4.7,6.953
			C56.455,29.183,57.035,32.048,57.035,35z"/>
	</g>
	<g>
		<path fill="#F59422" d="M48.192,35h-5.441c0-4.208-3.433-7.631-7.652-7.631v-5.426C42.319,21.943,48.192,27.8,48.192,35z"/>
	</g>
	<g>
		<path fill="#FADE00" d="M39.35,35h-4.251v-4.239C37.443,30.761,39.35,32.662,39.35,35z"/>
	</g>
</g>
</svg>
