<svg xmlns="http://www.w3.org/2000/svg" width="175" height="70" viewBox="0 0 175 70"><path d="M86.956 25.385c-.397.648-.902.864-1.408.864-.47 0-.975-.216-1.301-.864l-4.84-9.147V33.74c0 .829-.939 1.26-1.914 1.26-.939 0-1.914-.432-1.914-1.26V10.583c0-1.404.939-1.909 1.914-1.909 1.372 0 2.131.468 3.034 2.161l5.056 9.543 5.128-9.543c.903-1.692 1.625-2.161 2.999-2.161 1.011 0 1.913.504 1.913 1.909V33.74c0 .829-.938 1.26-1.913 1.26-.939 0-1.916-.432-1.916-1.26V16.454l-4.838 8.931zm11.557 8.031c0-.109 0-.217.036-.325l7.187-23.336c.288-.865 1.336-1.297 2.419-1.297 1.085 0 2.168.432 2.457 1.297l7.149 23.336c.036.108.072.216.072.325 0 .9-1.335 1.584-2.42 1.584-.612 0-1.119-.216-1.299-.792l-1.481-5.114h-8.92l-1.481 5.114c-.181.576-.687.792-1.336.792-1.047 0-2.383-.648-2.383-1.584zm13.254-7.383l-3.612-12.353-3.61 12.353h7.222zm21.379 7.563l-8.633-16.386v16.53c0 .829-.939 1.26-1.914 1.26-.939 0-1.914-.432-1.914-1.26V9.935c0-.9.939-1.26 1.914-1.26 1.372 0 2.022.504 2.89 2.161l8.018 15.594V9.899c0-.865.974-1.225 1.913-1.225.976 0 1.914.36 1.914 1.225v23.84c0 .829-.938 1.26-1.914 1.26-.94.001-1.77-.467-2.274-1.403zm23.329-24.921c.866 0 1.264.864 1.264 1.693 0 .936-.434 1.8-1.264 1.8h-5.562V33.74c0 .829-.976 1.26-1.914 1.26-.977 0-1.915-.432-1.915-1.26V12.168h-5.597c-.795 0-1.265-.828-1.265-1.765 0-.829.397-1.729 1.265-1.729h14.988zM162.324 35c-.831 0-1.698-.432-1.698-1.26V9.899c0-.865.977-1.225 1.915-1.225.975 0 1.914.36 1.914 1.225v21.715h9.389c.759 0 1.156.829 1.156 1.692 0 .829-.397 1.693-1.156 1.693h-11.52z" fill="#211F1F"/><ellipse fill="#211F1F" cx="35.099" cy="35" rx="35.099" ry="35"/><path fill="#E9233A" d="M65.877 35h-5.441c0-6.749-2.636-13.094-7.422-17.866-4.785-4.772-11.148-7.4-17.916-7.4V4.307c4.154 0 8.185.812 11.981 2.413a30.686 30.686 0 0 1 9.783 6.577A30.576 30.576 0 0 1 65.877 35z"/><path fill="#EE5228" d="M57.035 35h-5.442a16.32 16.32 0 0 0-4.831-11.631 16.411 16.411 0 0 0-11.664-4.818v-5.426c2.96 0 5.833.579 8.54 1.72a21.876 21.876 0 0 1 6.972 4.687A21.794 21.794 0 0 1 57.035 35z"/><path fill="#F59422" d="M48.192 35h-5.441c0-4.208-3.433-7.631-7.652-7.631v-5.426c7.22 0 13.093 5.857 13.093 13.057z"/><path fill="#FADE00" d="M39.35 35h-4.251v-4.239A4.25 4.25 0 0 1 39.35 35z"/></svg>