<svg width="283" height="96" viewBox="0 0 283 96" xmlns="http://www.w3.org/2000/svg"><title>wedeploy</title><g fill="none" fill-rule="evenodd"><path d="M117.7 33.6c9.7 0 16.2 6 16.2 14.7 0 8.8-6.4 14.7-16.2 14.7H106V33.6h11.7zm-.2 23.2c5.5 0 9.1-3.3 9.1-8.4 0-5.1-3.6-8.4-9.1-8.4h-4.1v16.9h4.1v-.1zm42.1-2.9h-16.2c.6 2.6 2.4 4.3 4.8 4.3 1.6 0 3.5-.4 4.7-2.6l6.2 1.3c-1.9 4.7-5.9 6.9-11 6.9-6.4 0-11.7-4.7-11.7-11.7 0-7 5.3-11.7 11.7-11.7 6.2 0 11.3 4.5 11.4 11.7v1.8h.1zm-16-4.3h9.1c-.7-2.4-2.4-3.5-4.4-3.5-2 0-4.1 1.2-4.7 3.5zm44.4 2.5c0 7-4.9 11.7-10.8 11.7-2.9 0-5.1-.9-6.9-2.4v9.2h-7V41h7v1.8c1.7-1.5 4-2.4 6.9-2.4 5.8 0 10.8 4.7 10.8 11.7zm-6.9 0c0-3.4-2.2-5.7-5.3-5.7-2.9 0-5.4 2.3-5.4 5.7 0 3.4 2.6 5.7 5.4 5.7 3 0 5.3-2.3 5.3-5.7zm10.5 11V31.4h7v31.7h-7zm35.1-11c0 7-5.5 11.7-12.1 11.7-6.7 0-12.2-4.7-12.2-11.7 0-7 5.5-11.6 12.2-11.6 6.5 0 12.1 4.6 12.1 11.6zm-6.8 0c0-3.4-2.6-5.7-5.3-5.7-2.9 0-5.5 2.3-5.5 5.7 0 3.5 2.6 5.7 5.5 5.7 2.7 0 5.3-2.2 5.3-5.7zm20.6 18.5h-7.6l3.6-8.2-9.2-21.4h7.6l5.2 12.9 5.6-12.9h7.6zm23-33.7v8.9h-3.9v-8.9H256v-3.3h11.3v3.3h-3.8zm15.6 8.9V40l-2.5 5.8h-1.9l-2.5-5.8v5.9h-3.7V33.6h4.1l2.9 6.6 2.9-6.6h4.1v12.2h-3.4z" fill="#0E141A"/><path d="M48.5 96C21.7 96 0 74.3 0 47.5-.1 21.3 21.2 0 47.4 0h.1C73.9.1 95.4 21.1 96 47.5c.6 26.2-20.2 47.9-46.3 48.5h-1.2z" fill="#00D46A"/><path d="M50.5 63.1h-7.8l-4.9-18.2-5 18.2H25l-8.4-29.5H24l5.1 18.6 5.1-18.6h6.9l5.1 18.6 5.1-18.6h7.5zm30.9-9.2H65.2c.6 2.6 2.4 4.3 4.8 4.3 1.6 0 3.5-.4 4.7-2.6l6.2 1.3c-1.9 4.7-5.9 6.9-11 6.9-6.4 0-11.7-4.7-11.7-11.7 0-7 5.3-11.7 11.7-11.7 6.2 0 11.3 4.5 11.4 11.7v1.8h.1zm-16.1-4.3h9.1c-.7-2.4-2.4-3.5-4.4-3.5-2 0-4 1.2-4.7 3.5z" fill="#FFF"/></g></svg>