<?xml version="1.0" encoding="UTF-8"?>
<svg width="283px" height="96px" viewBox="0 0 283 96" version="1.1" xmlns="http://www.w3.org/2000/svg" xmlns:xlink="http://www.w3.org/1999/xlink">
    <!-- Generator: Sketch 41 (35326) - http://www.bohemiancoding.com/sketch -->
    <title>wedeploy</title>
    <desc>Created with Sketch.</desc>
    <defs></defs>
    <g id="Page-1" stroke="none" stroke-width="1" fill="none" fill-rule="evenodd">
        <g id="white-bg-text-logo" transform="translate(-15.000000, 0.000000)">
            <g id="Page-1">
                <g id="wedeploy" transform="translate(15.000000, 0.000000)">
                    <g id="logo">
                        <g id="Group">
                            <g id="Deploy_" transform="translate(106.000000, 31.000000)" fill="#0E141A">
                                <path d="M11.7,2.6 C21.4,2.6 27.9,8.6 27.9,17.3 C27.9,26.1 21.5,32 11.7,32 L0,32 L0,2.6 L11.7,2.6 Z M11.5,25.8 C17,25.8 20.6,22.5 20.6,17.4 C20.6,12.3 17,9 11.5,9 L7.4,9 L7.4,25.9 L11.5,25.9 L11.5,25.8 Z" id="Shape"></path>
                                <path d="M53.6,22.9 L37.4,22.9 C38,25.5 39.8,27.2 42.2,27.2 C43.8,27.2 45.7,26.8 46.9,24.6 L53.1,25.9 C51.2,30.6 47.2,32.8 42.1,32.8 C35.7,32.8 30.4,28.1 30.4,21.1 C30.4,14.1 35.7,9.4 42.1,9.4 C48.3,9.4 53.4,13.9 53.5,21.1 L53.5,22.9 L53.6,22.9 Z M37.6,18.6 L46.7,18.6 C46,16.2 44.3,15.1 42.3,15.1 C40.3,15.1 38.2,16.3 37.6,18.6 Z" id="Shape"></path>
                                <path d="M82,21.1 C82,28.1 77.1,32.8 71.2,32.8 C68.3,32.8 66.1,31.9 64.3,30.4 L64.3,39.6 L57.3,39.6 L57.3,10 L64.3,10 L64.3,11.8 C66,10.3 68.3,9.4 71.2,9.4 C77,9.4 82,14.1 82,21.1 Z M75.1,21.1 C75.1,17.7 72.9,15.4 69.8,15.4 C66.9,15.4 64.4,17.7 64.4,21.1 C64.4,24.5 67,26.8 69.8,26.8 C72.8,26.8 75.1,24.5 75.1,21.1 Z" id="Shape"></path>
                                <polygon id="Shape" points="85.6 32.1 85.6 0.4 92.6 0.4 92.6 32.1 85.6 32.1"></polygon>
                                <path d="M120.7,21.1 C120.7,28.1 115.2,32.8 108.6,32.8 C101.9,32.8 96.4,28.1 96.4,21.1 C96.4,14.1 101.9,9.5 108.6,9.5 C115.1,9.5 120.7,14.1 120.7,21.1 Z M113.9,21.1 C113.9,17.7 111.3,15.4 108.6,15.4 C105.7,15.4 103.1,17.7 103.1,21.1 C103.1,24.6 105.7,26.8 108.6,26.8 C111.3,26.8 113.9,24.6 113.9,21.1 Z" id="Shape"></path>
                                <polygon id="Shape" points="134.5 39.6 126.9 39.6 130.5 31.4 121.3 10 128.9 10 134.1 22.9 139.7 10 147.3 10"></polygon>
                                <path d="M157.5,5.9 L157.5,14.8 L153.6,14.8 L153.6,5.9 L150,5.9 L150,2.6 L161.3,2.6 L161.3,5.9 L157.5,5.9 Z M173.1,14.8 L173.1,9 L170.6,14.8 L168.7,14.8 L166.2,9 L166.2,14.9 L162.5,14.9 L162.5,2.6 L166.6,2.6 L169.5,9.2 L172.4,2.6 L176.5,2.6 L176.5,14.8 L173.1,14.8 Z" id="Shape"></path>
                            </g>
                            <path d="M48.5,96 L48.5,96 C21.7,96 5.95405886e-15,74.3 5.95405886e-15,47.5 L5.95405886e-15,47.5 C-0.1,21.3 21.2,0 47.4,0 L47.5,0 L47.5,0 C73.9,0.1 95.4,21.1 96,47.5 L96,47.5 C96.6,73.7 75.8,95.4 49.7,96 L48.5,96 Z" id="circle" fill="#00D46A"></path>
                            <g id="We" transform="translate(16.000000, 33.000000)" fill="#FFFFFF">
                                <polygon id="Shape" points="34.5 30.1 26.7 30.1 21.8 11.9 16.8 30.1 9 30.1 0.6 0.6 8 0.6 13.1 19.2 18.2 0.6 25.1 0.6 30.2 19.2 35.3 0.6 42.8 0.6"></polygon>
                                <path d="M65.4,20.9 L49.2,20.9 C49.8,23.5 51.6,25.2 54,25.2 C55.6,25.2 57.5,24.8 58.7,22.6 L64.9,23.9 C63,28.6 59,30.8 53.9,30.8 C47.5,30.8 42.2,26.1 42.2,19.1 C42.2,12.1 47.5,7.4 53.9,7.4 C60.1,7.4 65.2,11.9 65.3,19.1 L65.3,20.9 L65.4,20.9 Z M49.3,16.6 L58.4,16.6 C57.7,14.2 56,13.1 54,13.1 C52,13.1 50,14.3 49.3,16.6 Z" id="Shape"></path>
                            </g>
                        </g>
                    </g>
                </g>
            </g>
        </g>
    </g>
</svg>